<?xml version="1.0" standalone="no"?>
<!DOCTYPE svg PUBLIC "-//W3C//DTD SVG 20010904//EN"
 "http://www.w3.org/TR/2001/REC-SVG-20010904/DTD/svg10.dtd">
<svg version="1.0" xmlns="http://www.w3.org/2000/svg"
 width="152.000000pt" height="152.000000pt" viewBox="0 0 152.000000 152.000000"
 preserveAspectRatio="xMidYMid meet">
<metadata>
Created by potrace 1.14, written by Peter Selinger 2001-2017
</metadata>
<g transform="translate(0.000000,152.000000) scale(0.100000,-0.100000)"
fill="#000000" stroke="none">
<path d="M150 775 l0 -525 605 0 605 0 0 525 0 525 -605 0 -605 0 0 -525z
m1200 0 l0 -515 -595 0 -595 0 0 515 0 515 595 0 595 0 0 -515z"/>
<path d="M501 904 c-23 -19 -31 -34 -31 -57 0 -38 4 -44 53 -80 40 -30 49 -65
22 -87 -15 -12 -64 -10 -97 5 -14 5 -18 2 -18 -14 0 -60 130 -52 174 11 32 46
13 94 -51 127 -29 15 -39 49 -21 68 17 16 42 19 81 10 22 -6 27 -4 27 12 0 40
-93 44 -139 5z"/>
<path d="M825 918 c-11 -36 -35 -175 -35 -208 0 -97 154 -109 214 -18 13 20
56 197 56 229 0 5 -11 9 -24 9 -22 0 -25 -7 -44 -107 -18 -88 -26 -112 -47
-130 -28 -25 -55 -29 -86 -13 -23 13 -24 48 -4 140 20 92 19 110 -5 110 -11 0
-22 -6 -25 -12z"/>
<path d="M1060 848 c-22 -126 -37 -164 -78 -197 -30 -26 -46 -31 -92 -32 -48
-1 -51 -2 -23 -9 72 -17 147 17 172 78 18 45 50 216 42 225 -4 4 -14 -25 -21
-65z"/>
<path d="M648 885 c-6 -30 -3 -43 8 -33 3 4 4 19 2 35 l-3 28 -7 -30z"/>
<path d="M886 899 c-6 -18 -36 -168 -36 -180 0 -5 3 -9 8 -9 9 0 45 190 38
198 -3 3 -8 -1 -10 -9z"/>
<path d="M547 873 c-4 -3 -7 -16 -7 -27 1 -20 1 -20 11 -3 6 10 20 22 32 27
21 8 21 9 -4 9 -14 1 -29 -2 -32 -6z"/>
<path d="M631 718 c-1 -30 -8 -42 -38 -67 -30 -25 -47 -31 -88 -32 -46 -1 -48
-2 -17 -9 92 -22 181 52 152 124 -7 17 -9 14 -9 -16z"/>
</g>
</svg>
